<svg xmlns="http://www.w3.org/2000/svg" xmlns:xlink="http://www.w3.org/1999/xlink" fill="none" version="1.1" width="312.00006103515625" height="304" viewBox="0 0 312.00006103515625 304"><defs><linearGradient x1="0.6835005283355713" y1="1.1080982685089111" x2="0.5621968741504535" y2="-0.006767369854913198" id="master_svg0_1_259"><stop offset="0%" stop-color="#FF8F1F" stop-opacity="1"/><stop offset="100%" stop-color="#FFC300" stop-opacity="1"/></linearGradient></defs><g><g><ellipse cx="156.5" cy="152.5" rx="96.5" ry="96.5" fill="#FFFFFF" fill-opacity="1"/></g><g><path d="M96.000015,20.0000057220459C84.954323,20.0000057220459,76.00001499999999,28.954311322045896,76.00001499999999,40.0000097220459C76.00001499999999,51.0457097220459,84.954323,60.0000137220459,96.000015,60.0000137220459L216.00005,60.0000137220459C227.04575,60.0000137220459,236.00005,51.0457097220459,236.00005,40.0000097220459C236.00005,28.954311322045896,227.04575,20.0000057220459,216.00005,20.0000057220459L96.000015,20.0000057220459ZM60.019382,244.9364557220459Q20,205.6581657220459,20,149.9999757220459Q20,101.4381697220459,50.465006,65.3457007220459C55.452286,59.437177722045895,64.40992399999999,59.5368477220459,69.825928,65.0550437220459C75.24193600000001,70.57323672204589,74.96458799999999,79.5077727220459,70.20772600000001,85.6033387220459C56.277554,103.4538177220459,48.000008,125.7781157220459,48.000008,149.9999757220459C48.000008,208.5421657220459,96.353256,255.9999857220459,156.00003,255.9999857220459C215.6468,255.9999857220459,264.00005999999996,208.5421657220459,264.00005999999996,149.9999757220459C264.00005999999996,125.7781157220459,255.7225,103.4538177220459,241.79231,85.6033387220459C237.03546,79.5077797220459,236.75812,70.5732437220459,242.17412,65.0550477220459C247.59013,59.5368477220459,256.54778999999996,59.437177722045895,261.53506,65.3457047220459Q292.00006,101.4381847220459,292.00006,149.9999757220459Q292.00006,205.6581657220459,251.98068,244.9364557220459Q212.18008,284.0000057220459,156.00003,284.0000057220459Q99.819969,284.0000057220459,60.019382,244.9364557220459Z" fill-rule="evenodd" fill="#000000" fill-opacity="1"/><path d="M56.000015,40.0000097220459Q56.000015,40.5708927220459,56.01392,41.1358947220459Q43.566900000000004,42.5111927220459,35.181678,52.4453177220459Q0,94.1257227220459,0,149.9999757220459Q0.000001999999998503199,214.0521257220459,46.010027,259.2101357220459Q91.644958,304.0000057220459,156.00003,304.0000057220459Q220.35507,304.0000057220459,265.99004,259.2101357220459Q312.00006,214.0521257220459,312.00006,149.9999757220459Q312.00006,94.12574572204589,276.81839,52.4453337220459Q268.43318,42.5111927220459,255.98615,41.1358947220459Q256.00005,40.5710467220459,256.00005,40.0000097220459Q256.00005,23.4314708220459,244.28432,11.7157383220459Q232.56859,0.000007722045896940699,216.00005,0.000007722045896940699L96.000015,0.0000057220458984375Q79.431473,0.0000057220458984375,67.715744,11.7157354220459Q56.000015,23.4314642220459,56.000015,40.0000097220459ZM90.03331,59.094831722045896C83.541252,57.068326722045896,78.47035199999999,51.822255722045895,76.689571,45.2255687220459C76.23989900000001,43.5598047220459,76.00001499999999,41.8079227220459,76.00001499999999,40.0000097220459C76.00001499999999,28.954311322045896,84.954323,20.0000057220459,96.000015,20.0000057220459L216.00005,20.0000057220459C227.04575,20.0000057220459,236.00005,28.954311322045896,236.00005,40.0000097220459C236.00005,41.8079207220459,235.76016,43.5598027220459,235.31049,45.2255647220459C233.52971,51.8222597220459,228.4588,57.0683387220459,221.96674,59.0948387220459C220.08234,59.6830537220459,218.07822,60.0000137220459,216.00005,60.0000137220459L96.000015,60.0000137220459C93.921844,60.0000137220459,91.917709,59.6830497220459,90.03331,59.094831722045896ZM69.825928,65.0550437220459C72.088551,67.3603577220459,73.35752500000001,70.26191872204589,73.721348,73.3036437220459C74.22840099999999,77.5428447220459,72.977333,82.0542927220459,70.20772600000001,85.6033387220459C56.277554,103.4538177220459,48.000008,125.7781157220459,48.000008,149.9999757220459C48.000008,208.5421657220459,96.353256,255.9999857220459,156.00003,255.9999857220459C215.6468,255.9999857220459,264.00005999999996,208.5421657220459,264.00005999999996,149.9999757220459C264.00005999999996,125.7781157220459,255.7225,103.4538177220459,241.79231,85.6033387220459C239.02272,82.0542967220459,237.77165,77.5428527220459,238.2787,73.3036517220459C238.64252,70.2619267220459,239.9115,67.3603647220459,242.17412,65.0550477220459C244.39902,62.788179722045896,247.22157,61.4357127220459,250.12105,61.038537722045895C254.27971,60.4688737220459,258.59656,61.8643937220459,261.53506,65.3457047220459Q292.00006,101.4381847220459,292.00006,149.9999757220459Q292.00006,205.6581657220459,251.98068,244.9364557220459Q212.18008,284.0000057220459,156.00003,284.0000057220459Q99.819969,284.0000057220459,60.019382,244.9364557220459Q20,205.6581657220459,20,149.9999757220459Q20,101.4381697220459,50.465006,65.3457007220459C53.403519,61.8643937220459,57.720371,60.468877722045896,61.879017,61.038537722045895C64.778481,61.4357127220459,67.60104,62.7881757220459,69.825928,65.0550437220459ZM216.00005,80.0000137220459Q217.24162,80.0000137220459,218.45595,79.9342247220459L218.45906,79.9593177220459Q219.67981,89.7765717220459,226.02518,97.9077057220459Q244.00006,120.94115572204589,244.00006,149.9999257220459Q244.00006,185.5126257220459,218.35823,210.6796157220459Q206.17471,222.6375157220459,190.37038,229.1983957220459Q173.98621,235.9999857220459,156.00003,235.9999857220459Q138.01386,235.9999857220459,121.62968,229.1983957220459Q105.825348,222.6375157220459,93.641838,210.6796357220459Q68.00000800000001,185.5126557220459,68.00000800000001,149.9999757220459Q68.00000800000001,120.9411457220459,85.974861,97.9077057220459Q92.328346,89.7661877220459,93.544098,79.9342247220459Q93.618393,79.9382497220459,93.694054,79.94209072204589Q94.835068,80.0000137220459,96.000015,80.0000137220459L216.00005,80.0000137220459Z" fill-rule="evenodd" fill="#FFFFFF" fill-opacity="1"/></g><g><path d="M182.70183915893554,28.000001907348633L156.42886015893555,60.00000590734863L64.32416915893555,172.18184190734863L142.55003015893556,172.18184190734863L132.51171515893554,253.48608190734862C136.23974215893554,254.29758190734864,140.04023315893556,254.91997190734864,143.90224815893555,255.34247190734862L248.60353915893555,127.81820890734863L170.37766915893553,127.81820890734863L178.75092915893555,60.000009907348634L182.70183915893554,28.000001907348633Z" fill-rule="evenodd" fill="url(#master_svg0_1_259)" fill-opacity="1" style="mix-blend-mode:passthrough"/></g></g></svg>